# Blender v2.79 (sub 0) OBJ File: 'spaceBox.blend'
# www.blender.org
mtllib spaceBox.mtl
o Cube
v 49.999977 -50.000000 -49.999973
v 49.999977 -50.000000 49.999977
v -49.999981 -50.000000 49.999966
v -49.999958 -50.000000 -49.999996
v 50.000000 50.000000 -49.999954
v 49.999939 50.000000 50.000008
v -49.999996 50.000000 49.999958
v -49.999973 50.000000 -49.999977
vt 0.500000 0.500000
vt 0.749957 0.500000
vt 0.749957 0.250043
vt 0.250043 0.500000
vt 0.250043 0.250044
vt 0.000087 0.250044
vt 0.500000 0.250043
vt 0.500000 0.000087
vt 0.999913 0.250043
vt 0.500000 0.749957
vt 0.749957 0.749957
vt 0.000087 0.500000
vt 0.749957 0.000087
vt 0.999913 0.500000
vn 0.0000 1.0000 -0.0000
vn 0.0000 -1.0000 0.0000
vn -1.0000 0.0000 0.0000
vn 0.0000 0.0000 -1.0000
vn 1.0000 0.0000 0.0000
vn -0.0000 -0.0000 1.0000
usemtl Material
s off
f 1/1/1 4/2/1 3/3/1
f 5/4/2 6/5/2 7/6/2
f 5/4/3 1/1/3 2/7/3
f 6/8/4 2/7/4 3/3/4
f 7/9/5 3/3/5 4/2/5
f 1/1/6 5/10/6 8/11/6
f 1/1/1 3/3/1 2/7/1
f 5/4/2 7/6/2 8/12/2
f 5/4/3 2/7/3 6/5/3
f 6/8/4 3/3/4 7/13/4
f 7/9/5 4/2/5 8/14/5
f 1/1/6 8/11/6 4/2/6
