# Blender v2.79 (sub 0) OBJ File: 'ananasPiece.blend'
# www.blender.org
mtllib ananasPiece.mtl
o Cube
v 2.564345 -0.725626 -0.594585
v 2.564345 -0.725626 0.594586
v 2.564346 0.725626 -0.594585
v 2.564344 0.725626 0.594586
v -0.492989 -0.725626 1.601333
v -1.000000 -0.725626 0.746369
v -0.851500 -0.725626 1.262552
v -1.000000 -0.725626 -0.746369
v -0.492988 -0.725626 -1.601333
v -0.851500 -0.725626 -1.262553
v -1.000000 0.725626 0.746369
v -0.492989 0.725626 1.601333
v -0.851500 0.725626 1.262552
v -0.492988 0.725626 -1.601333
v -1.000000 0.725626 -0.746369
v -0.851500 0.725626 -1.262552
vt 0.690196 0.877269
vt 0.467793 0.665286
vt 0.690196 0.665286
vt 0.699391 0.529372
vt 0.881630 0.739602
vt 0.699391 0.739602
vt 0.635620 0.520680
vt 0.556515 0.499168
vt 0.504597 0.447234
vt 0.227000 0.529372
vt 0.004598 0.995654
vt 0.004597 0.529372
vt 0.158880 0.004346
vt 0.135620 0.520680
vt 0.004597 0.447234
vt 0.467793 0.984181
vt 0.690196 0.946325
vt 0.690196 0.984181
vt 0.467793 0.946325
vt 0.467793 0.587736
vt 0.690196 0.587736
vt 0.467793 0.529372
vt 0.690196 0.529372
vt 0.236195 0.995654
vt 0.458598 0.529372
vt 0.458598 0.995654
vt 0.467793 0.877269
vt 0.881630 0.529372
vt 0.658880 0.004346
vt 0.841119 0.004346
vt 0.995403 0.447234
vt 0.864380 0.520680
vt 0.943485 0.499168
vt 0.227000 0.995654
vt 0.341120 0.004346
vt 0.364380 0.520680
vt 0.495402 0.447234
vt 0.443485 0.499169
vt 0.056515 0.499169
vt 0.236195 0.529372
vn -1.0000 -0.0000 -0.0000
vn 1.0000 -0.0000 0.0000
vn 0.0000 -1.0000 -0.0000
vn 0.3128 0.0000 -0.9498
vn 0.0000 1.0000 0.0000
vn -0.6868 -0.0000 0.7268
vn -0.9610 -0.0000 0.2765
vn -0.9610 -0.0000 -0.2765
vn -0.6868 0.0000 -0.7268
vn 0.3128 0.0000 0.9498
usemtl ananasPiece
s off
f 6/1/1 15/2/1 8/3/1
f 3/4/2 2/5/2 1/6/2
f 8/7/3 10/8/3 9/9/3
f 1/10/4 14/11/4 3/12/4
f 4/13/5 11/14/5 12/15/5
f 12/16/6 7/17/6 5/18/6
f 13/19/7 6/1/7 7/17/7
f 8/3/8 16/20/8 10/21/8
f 10/21/9 14/22/9 9/23/9
f 4/24/10 5/25/10 2/26/10
f 6/1/1 11/27/1 15/2/1
f 3/4/2 4/28/2 2/5/2
f 9/9/3 1/29/3 8/7/3
f 1/29/3 2/30/3 8/7/3
f 2/30/3 5/31/3 6/32/3
f 5/31/3 7/33/3 6/32/3
f 6/32/3 8/7/3 2/30/3
f 1/10/4 9/34/4 14/11/4
f 4/13/5 3/35/5 15/36/5
f 3/35/5 14/37/5 15/36/5
f 14/37/5 16/38/5 15/36/5
f 15/36/5 11/14/5 4/13/5
f 11/14/5 13/39/5 12/15/5
f 12/16/6 13/19/6 7/17/6
f 13/19/7 11/27/7 6/1/7
f 8/3/8 15/2/8 16/20/8
f 10/21/9 16/20/9 14/22/9
f 4/24/10 12/40/10 5/25/10
