# Blender v2.79 (sub 0) OBJ File: 'ananas2.blend'
# www.blender.org
o Icosphere
v -0.737920 1.862932 -0.121798
v -0.423500 1.195875 -0.107061
v 0.346108 1.224366 0.091414
v 0.324408 1.576008 0.238043
v -0.203970 1.826615 0.364104
v -0.106678 2.069304 0.271352
v 0.072901 2.826783 0.173833
v -0.101649 2.382575 0.209694
v 0.325347 1.762515 0.193303
v 0.355598 1.714460 -0.016437
v -0.360792 2.129875 0.023804
v -0.396502 2.104602 -0.030417
v -0.220269 2.219518 -0.023914
v -0.295487 2.719753 0.154913
v -0.092138 2.291896 -0.019972
v -0.384514 2.088622 -0.155524
v -0.451369 1.920820 -0.185240
v -0.059886 1.917832 0.602628
v 0.568250 2.084321 0.084608
v 0.291620 2.223319 0.003139
v 0.112645 2.391202 -0.182113
v 0.300587 1.943390 -0.076005
v -0.032432 2.306508 -0.318660
v -0.232915 2.173379 -0.278252
v -0.356954 2.467729 -0.361817
v -0.327837 1.299790 -0.404574
v -0.181923 1.244329 0.303025
v -0.523319 1.790553 -0.024909
v -0.528974 1.687310 -0.025451
v -0.406861 1.713070 0.210862
v -0.475686 1.899993 0.539041
v -0.657512 2.384890 0.057022
v -0.388718 2.035025 0.192124
v 0.174858 1.823735 0.377180
v 0.330971 2.357172 0.410140
v -0.008929 2.417865 0.528724
v 0.059031 2.199249 0.264149
v 0.599451 1.856167 -0.190266
v -0.153384 2.034829 -0.440734
v -0.201206 1.837112 -0.495410
v 0.281124 1.783332 0.319675
v -0.524161 2.228351 -0.302774
v -0.347177 2.173568 -0.698281
v 0.074511 2.095918 -0.537316
v 0.301219 1.923078 0.626748
v -0.218412 2.760540 -0.110774
v -0.010121 2.324924 -0.085980
v 0.296751 1.649008 -0.235202
v 0.140037 1.699400 -0.318828
v 0.401162 2.367538 -0.471759
v 0.226171 1.960897 -0.683232
v 0.459652 1.718299 0.079686
v 0.455336 1.363178 -0.080891
v 0.369252 1.188879 -0.239581
v 0.627108 1.948946 0.209885
v 0.335159 1.630269 0.415376
v 0.203751 1.227272 0.354544
v -0.138363 2.654502 -0.609483
v -0.003748 1.216928 -0.488545
v -0.282903 1.646651 0.365433
v 0.505610 2.520771 0.053802
v 0.171470 1.790989 -0.272109
v 0.148945 2.194477 -0.325856
v 0.075603 2.929207 -0.254236
v 0.334150 2.106440 0.130823
v -0.468375 2.241173 0.441537
v 0.175983 -1.133218 0.190934
v -0.367188 -0.942379 0.715759
v -0.904423 -0.838486 -0.112859
v -0.565039 -1.057331 -0.014737
v -0.596187 -0.892725 -0.654303
v -0.362626 -0.774255 -0.853891
v 0.096581 -1.081339 -0.443205
v 0.281252 -0.866243 -0.837390
v 0.805056 -0.922683 -0.306631
v 0.860218 -0.850388 0.247223
v 0.863089 -0.293460 -0.507484
v 0.373092 -0.923993 0.777484
v 0.740780 -0.398670 0.687788
v -0.833635 -0.842324 0.320544
v -0.576964 -0.543279 0.813847
v -0.569762 -0.304327 -0.814462
v -0.874106 -0.252500 -0.465775
v 0.997235 -0.300643 0.082995
v 0.056299 1.814095 -0.456599
v 0.185408 2.121753 -0.090265
v 0.035345 1.234441 0.369052
v -0.480753 1.598842 0.188145
v -0.878098 -0.391600 0.475682
v -0.651127 0.723254 0.612154
v -0.667053 0.800194 -0.564045
v -0.326846 0.768387 -0.835478
v -0.099977 -0.440248 -0.989165
v 0.352654 -0.268494 -0.946200
v 0.831215 0.723092 -0.317718
v 0.852598 0.879745 0.051496
v 0.522469 0.866779 0.682279
v -0.507338 1.015668 0.529415
v 0.249393 0.849955 0.823997
v -0.208396 0.744320 0.863841
v -0.893958 0.776121 -0.001524
v -0.126211 -0.564990 0.982738
v 0.192807 -0.296626 0.975388
v 0.798126 0.730175 0.390156
v 0.679407 0.847343 -0.539373
v -0.182843 1.203584 -0.382151
v -0.668813 1.044328 -0.161562
v 0.337362 0.861442 -0.796833
v 0.638413 -0.772064 -0.671663
v -0.994560 -0.222230 0.021131
vt 0.301625 0.381303
vt 0.279626 0.398186
vt 0.309182 0.343893
vt 0.906061 0.352131
vt 0.906061 0.455581
vt 0.862223 0.418329
vt 0.161861 0.738476
vt 0.201564 0.662580
vt 0.190902 0.758899
vt 0.107054 0.786434
vt 0.013072 0.763326
vt 0.067106 0.719311
vt 0.950106 0.858805
vt 0.916740 0.829710
vt 0.936349 0.812896
vt 0.196012 0.043778
vt 0.171658 0.082613
vt 0.108179 0.090958
vt 0.526309 0.862236
vt 0.541961 0.906266
vt 0.506093 0.849178
vt 0.069877 0.188210
vt 0.009530 0.134922
vt 0.074124 0.106836
vt 0.070613 0.296527
vt 0.009182 0.212203
vt 0.269007 0.808997
vt 0.267600 0.883715
vt 0.219929 0.856920
vt 0.769382 0.811521
vt 0.745422 0.789695
vt 0.764948 0.753955
vt 0.670721 0.748561
vt 0.725341 0.724901
vt 0.913064 0.571437
vt 0.890738 0.476122
vt 0.913064 0.476101
vt 0.440268 0.696116
vt 0.477711 0.693803
vt 0.477711 0.785703
vt 0.541961 0.814684
vt 0.143877 0.814574
vt 0.167360 0.222015
vt 0.192531 0.310483
vt 0.116333 0.217072
vt 0.186891 0.198093
vt 0.200445 0.158738
vt 0.274773 0.137710
vt 0.579788 0.798923
vt 0.575194 0.748713
vt 0.597663 0.768104
vt 0.581417 0.915267
vt 0.600442 0.899906
vt 0.611978 0.929418
vt 0.279171 0.773046
vt 0.225833 0.790656
vt 0.275558 0.735125
vt 0.885073 0.043732
vt 0.917346 0.036060
vt 0.925951 0.042190
vt 0.699402 0.326426
vt 0.660037 0.273199
vt 0.699402 0.269665
vt 0.927294 0.009171
vt 0.431757 0.908615
vt 0.485513 0.847560
vt 0.462540 0.914923
vt 0.911184 0.655112
vt 0.891345 0.676055
vt 0.876437 0.690071
vt 0.828248 0.578045
vt 0.828248 0.633394
vt 0.788676 0.592344
vt 0.717766 0.269665
vt 0.767271 0.291166
vt 0.730505 0.285843
vt 0.009182 0.677176
vt 0.125419 0.744883
vt 0.134044 0.671511
vt 0.311798 0.777765
vt 0.297536 0.761912
vt 0.311798 0.747725
vt 0.684024 0.814524
vt 0.709397 0.768788
vt 0.885073 0.236842
vt 0.902813 0.222820
vt 0.929871 0.268924
vt 0.929871 0.197629
vt 0.148114 0.986189
vt 0.125419 0.955320
vt 0.148114 0.925424
vt 0.728872 0.905026
vt 0.686263 0.898188
vt 0.728872 0.832865
vt 0.786123 0.352131
vt 0.834897 0.401508
vt 0.785158 0.409434
vt 0.652356 0.803886
vt 0.602447 0.802664
vt 0.622712 0.782602
vt 0.628883 0.735782
vt 0.531800 0.924607
vt 0.531800 0.983107
vt 0.506093 0.939368
vt 0.974528 0.009171
vt 0.974528 0.069530
vt 0.945658 0.013815
vt 0.929549 0.667965
vt 0.962831 0.655112
vt 0.962831 0.733347
vt 0.648353 0.940643
vt 0.630343 0.920026
vt 0.648353 0.863453
vt 0.578062 0.845112
vt 0.645010 0.283693
vt 0.386820 0.730499
vt 0.413392 0.778546
vt 0.331021 0.778546
vt 0.747237 0.864084
vt 0.766382 0.832865
vt 0.766382 0.884609
vt 0.279626 0.595536
vt 0.307997 0.576263
vt 0.307997 0.638411
vt 0.561369 0.863453
vt 0.611978 0.869657
vt 0.362734 0.713685
vt 0.974746 0.260219
vt 0.948235 0.219526
vt 0.974746 0.197629
vt 0.911184 0.736276
vt 0.485513 0.915739
vt 0.221574 0.888464
vt 0.287371 0.837237
vt 0.312440 0.808997
vt 0.312440 0.884024
vt 0.813878 0.520223
vt 0.860807 0.554703
vt 0.785158 0.554703
vt 0.201564 0.753275
vt 0.810288 0.479232
vt 0.824098 0.476101
vt 0.269007 0.894147
vt 0.107054 0.662580
vt 0.712596 0.923367
vt 0.683736 0.946645
vt 0.670721 0.935232
vt 0.431757 0.761325
vt 0.219929 0.731273
vt 0.279171 0.662580
vt 0.879171 0.531964
vt 0.310735 0.729384
vt 0.297536 0.667751
vt 0.310735 0.662580
vt 0.712596 0.971965
vt 0.957909 0.877146
vt 0.957909 0.952279
vt 0.916740 0.930117
vt 0.281127 0.466260
vt 0.309631 0.481004
vt 0.279626 0.501909
vt 0.378823 0.821462
vt 0.399764 0.796887
vt 0.399764 0.871968
vt 0.390458 0.693803
vt 0.950106 0.767775
vt 0.573636 0.679375
vt 0.634273 0.722083
vt 0.601659 0.726882
vt 0.843915 0.655112
vt 0.843915 0.749434
vt 0.833232 0.663274
vt 0.927294 0.088631
vt 0.066239 0.804775
vt 0.066239 0.890070
vt 0.039973 0.839773
vt 0.924426 0.380489
vt 0.925829 0.352131
vt 0.955734 0.359398
vt 0.973496 0.090747
vt 0.973496 0.179288
vt 0.947937 0.140247
vt 0.787746 0.685165
vt 0.829746 0.269665
vt 0.829746 0.323981
vt 0.785635 0.301013
vt 0.309182 0.447919
vt 0.052309 0.908411
vt 0.052309 0.962282
vt 0.009182 0.914309
vt 0.455413 0.990829
vt 0.431757 0.973697
vt 0.455413 0.934080
vt 0.785158 0.573044
vt 0.908705 0.593066
vt 0.921265 0.626311
vt 0.892913 0.626311
vt 0.331021 0.818902
vt 0.929573 0.179288
vt 0.885073 0.150067
vt 0.929573 0.106973
vt 0.917338 0.327077
vt 0.929330 0.288885
vt 0.937003 0.327077
vt 0.822800 0.422968
vt 0.764013 0.325831
vt 0.670721 0.884665
vt 0.561369 0.762280
vt 0.787746 0.816587
vt 0.837723 0.767775
vt 0.837723 0.869151
vt 0.652356 0.655112
vt 0.150097 0.009171
vt 0.078116 0.033659
vt 0.496076 0.740022
vt 0.541961 0.693803
vt 0.541961 0.796342
vt 0.900105 0.176913
vt 0.807124 0.457760
vt 0.924221 0.770981
vt 0.012367 0.860884
vt 0.009182 0.827918
vt 0.309971 0.969817
vt 0.275923 0.924691
vt 0.309971 0.912488
vt 0.862223 0.329593
vt 0.898973 0.288885
vt 0.898973 0.333789
vt 0.843859 0.428887
vt 0.166478 0.948314
vt 0.168964 0.925424
vt 0.190053 0.941582
vt 0.769382 0.699408
vt 0.718017 0.695453
vt 0.685322 0.655112
vt 0.412683 0.935325
vt 0.392243 0.893929
vt 0.412683 0.890309
vt 0.190053 0.984211
vt 0.968470 0.802761
vt 0.976244 0.774117
vt 0.990818 0.828614
vt 0.990818 0.767775
vt 0.843859 0.386238
vt 0.464734 0.829219
vt 0.957054 0.527028
vt 0.957054 0.568549
vt 0.931428 0.534142
vt 0.125419 0.850130
vt 0.179168 0.832915
vt 0.179168 0.907083
vt 0.895423 0.952746
vt 0.856087 0.909423
vt 0.895423 0.894109
vt 0.726315 0.325831
vt 0.846612 0.633394
vt 0.867822 0.593066
vt 0.874549 0.633394
vt 0.955734 0.434208
vt 0.257558 0.967559
vt 0.219929 0.967559
vt 0.237866 0.912488
vt 0.309631 0.557922
vt 0.817817 0.962754
vt 0.787746 0.913133
vt 0.817817 0.887492
vt 0.862279 0.714459
vt 0.765409 0.976354
vt 0.730960 0.934836
vt 0.765409 0.923367
vt 0.543004 0.424264
vt 0.524661 0.549463
vt 0.471180 0.466321
vt 0.435574 0.210674
vt 0.331021 0.247920
vt 0.337843 0.112372
vt 0.588017 0.456756
vt 0.561369 0.352131
vt 0.635115 0.395628
vt 0.431561 0.333789
vt 0.532067 0.321550
vt 0.551645 0.192592
vt 0.645663 0.476396
vt 0.469514 0.073510
vt 0.408292 0.024292
vt 0.591726 0.569237
vt 0.487268 0.009171
vt 0.587774 0.063308
vt 0.626646 0.104073
vt 0.626646 0.222665
vt 0.599152 0.288039
vt 0.258630 0.411074
vt 0.249672 0.475484
vt 0.192537 0.426756
vt 0.459550 0.586683
vt 0.543004 0.638109
vt 0.472265 0.675462
vt 0.178408 0.343893
vt 0.070135 0.416136
vt 0.331021 0.579957
vt 0.355024 0.640311
vt 0.475314 0.377009
vt 0.517346 0.352131
vt 0.345059 0.405466
vt 0.335278 0.449639
vt 0.651365 0.560566
vt 0.642648 0.635530
vt 0.565220 0.633616
vt 0.766793 0.526382
vt 0.373878 0.890309
vt 0.373878 0.945143
vt 0.331021 0.917080
vt 0.898376 0.875768
vt 0.856087 0.869482
vt 0.898376 0.767775
vt 0.009182 0.561242
vt 0.062243 0.541451
vt 0.066881 0.644239
vt 0.084604 0.883388
vt 0.100726 0.804775
vt 0.100726 0.937748
vt 0.951145 0.476101
vt 0.797265 0.079198
vt 0.796548 0.162240
vt 0.671358 0.134971
vt 0.669710 0.061355
vt 0.261261 0.545965
vt 0.244243 0.644239
vt 0.212442 0.621015
vt 0.196373 0.549712
vt 0.345056 0.519333
vt 0.312656 0.316138
vt 0.241508 0.284144
vt 0.299501 0.221918
vt 0.648384 0.357866
vt 0.766793 0.436642
vt 0.740525 0.636771
vt 0.679601 0.245184
vt 0.796853 0.251324
vt 0.806662 0.009171
vt 0.849215 0.051787
vt 0.866708 0.103573
vt 0.866708 0.217995
vt 0.060385 0.462956
vt 0.128602 0.325552
vt 0.312656 0.130915
vt 0.645010 0.201444
vt 0.252164 0.031999
vt 0.042116 0.374411
vn -0.3420 -0.6692 -0.6597
vn -0.8241 -0.3973 -0.4038
vn -0.9032 -0.0284 -0.4284
vn -0.8441 -0.3897 0.3683
vn 0.6388 0.3105 -0.7039
vn -0.4328 0.8285 -0.3554
vn 0.2284 -0.0930 0.9691
vn 0.3824 0.7869 -0.4843
vn 0.6168 0.7551 -0.2222
vn -0.6730 -0.2480 0.6968
vn 0.8451 -0.5221 0.1151
vn 0.4660 -0.3159 0.8265
vn 0.8876 -0.3855 0.2521
vn 0.0640 -0.3713 0.9263
vn -0.2872 -0.3454 0.8934
vn 0.7188 0.0732 0.6914
vn -0.8623 -0.1271 -0.4902
vn 0.5650 0.7697 0.2972
vn -0.1441 0.7922 0.5930
vn 0.9482 0.1559 -0.2767
vn -0.1095 0.1936 0.9749
vn 0.9554 0.2952 0.0015
vn -0.7619 0.6101 0.2174
vn -0.9210 0.3477 -0.1754
vn -0.5451 0.8378 -0.0315
vn -0.9874 0.1295 -0.0908
vn -0.0089 0.0701 -0.9975
vn -0.1290 0.1550 0.9795
vn -0.5760 0.8021 -0.1577
vn -0.7383 -0.4637 0.4897
vn -0.7676 -0.3792 -0.5168
vn -0.9117 0.3875 -0.1369
vn 0.5753 0.0133 0.8178
vn -0.4985 0.6011 -0.6247
vn -0.9362 0.3368 -0.1006
vn -0.1662 0.1441 0.9755
vn 0.4646 0.1161 0.8779
vn 0.9894 -0.1022 0.1030
vn 0.6906 -0.0592 -0.7208
vn 0.6318 0.3528 -0.6902
vn 0.4924 0.2514 -0.8333
vn 0.0748 0.7738 0.6290
vn 0.8983 0.4227 -0.1196
vn -0.9834 0.1622 0.0815
vn 0.5590 0.1479 0.8159
vn -0.1426 0.2650 -0.9536
vn -0.6650 0.4272 -0.6126
vn -0.8435 0.1665 -0.5106
vn 0.9074 0.4094 0.0951
vn 0.8090 0.5531 -0.1988
vn -0.2920 0.4413 0.8485
vn -0.3562 0.2644 -0.8962
vn 0.3313 0.5481 -0.7680
vn -0.1480 0.3131 -0.9381
vn -0.4464 0.2410 -0.8618
vn -0.8837 0.0767 0.4617
vn -0.9436 0.0340 -0.3295
vn 0.6912 0.6558 -0.3036
vn -0.8603 0.0498 -0.5073
vn -0.8118 0.4515 0.3703
vn -0.8895 0.0463 0.4546
vn -0.5479 0.8050 0.2276
vn -0.7530 -0.4939 0.4347
vn -0.6763 0.3016 0.6720
vn -0.8373 -0.0883 0.5396
vn 0.6484 -0.1638 0.7435
vn -0.9035 0.2087 0.3744
vn -0.7022 0.5453 -0.4578
vn -0.4957 0.8552 0.1513
vn 0.6805 0.6889 -0.2497
vn -0.3952 -0.4060 0.8240
vn -0.3232 -0.2412 -0.9151
vn 0.1083 0.7954 0.5964
vn -0.4910 0.5294 -0.6918
vn 0.1420 0.4064 -0.9026
vn 0.4903 0.0855 -0.8673
vn 0.9343 -0.3514 0.0602
vn 0.9359 -0.3105 -0.1666
vn 0.7472 0.6414 0.1744
vn -0.3992 0.8568 0.3263
vn 0.3386 0.5951 -0.7289
vn -0.5251 0.2607 0.8102
vn 0.9031 -0.2355 0.3591
vn -0.5142 0.0978 0.8520
vn -0.4556 -0.7846 -0.4205
vn -0.1499 0.0740 0.9859
vn 0.5976 -0.1878 0.7795
vn 0.5238 0.2959 0.7988
vn 0.9688 0.2353 -0.0773
vn -0.0062 0.8414 0.5404
vn -0.7666 0.0728 -0.6380
vn -0.2868 0.1894 0.9391
vn 0.4664 -0.3665 -0.8051
vn -0.6553 0.1293 0.7442
vn 0.9451 0.0348 0.3250
vn 0.6201 0.3669 -0.6934
vn 0.4254 0.4085 0.8076
vn 0.9401 0.3410 -0.0010
vn 0.1270 0.0295 -0.9915
vn 0.5162 0.2419 -0.8216
vn 0.5592 0.8276 -0.0496
vn 0.3951 0.7820 -0.4821
vn -0.3679 -0.1273 -0.9211
vn 0.5573 0.1228 -0.8212
vn -0.3881 0.7233 -0.5711
vn 0.9565 -0.2911 0.0172
vn 0.7346 -0.2303 -0.6382
vn 0.9428 0.1490 -0.2982
vn 0.9898 0.0006 0.1426
vn 0.6701 -0.1892 -0.7178
vn 0.4400 0.7446 -0.5019
vn -0.5519 0.8280 -0.0993
vn 0.6994 0.0342 0.7139
vn -0.8121 0.5322 -0.2391
vn 0.9451 0.0717 0.3189
vn 0.9578 0.2534 -0.1356
vn 0.7463 -0.3306 0.5777
vn 0.8698 -0.1432 0.4722
vn 0.9483 -0.3151 0.0389
vn 0.1166 0.9011 -0.4177
vn 0.9578 0.2327 -0.1686
vn -0.3601 0.6430 -0.6759
vn -0.1943 0.2297 0.9537
vn 0.4156 -0.1768 0.8922
vn -0.8708 0.1576 0.4657
vn 0.1649 0.2256 -0.9602
vn 0.3767 0.3760 -0.8466
vn -0.8532 0.1562 0.4977
vn -0.3805 0.4632 0.8004
vn -0.6960 0.3990 0.5970
vn 0.6992 -0.0475 -0.7134
vn -0.3445 0.0091 -0.9387
vn -0.3231 -0.2414 -0.9151
vn 0.9243 -0.3579 0.1322
vn 0.8674 0.4741 -0.1513
vn -0.6153 0.7749 -0.1446
vn 0.5753 0.7935 0.1988
vn -0.0729 0.7418 -0.6667
vn 0.7040 -0.3916 0.5924
vn -0.0048 -0.9414 0.3374
vn -0.0556 -0.5527 0.8315
vn 0.3596 -0.9105 0.2040
vn 0.3748 -0.9234 0.0832
vn 0.2371 -0.9654 -0.1087
vn -0.3396 -0.3890 0.8564
vn -0.1531 -0.9690 0.1939
vn -0.3987 -0.8832 0.2470
vn -0.6248 -0.4798 0.6160
vn -0.5570 -0.8263 0.0837
vn -0.0821 -0.9941 -0.0710
vn -0.4912 -0.8490 -0.1946
vn -0.1876 -0.9534 -0.2362
vn -0.0992 -0.8004 -0.5912
vn -0.0797 -0.8589 -0.5060
vn 0.2695 -0.8928 -0.3609
vn 0.4315 -0.7473 -0.5053
vn 0.8453 -0.2317 -0.4815
vn 0.9623 -0.1592 -0.2206
vn 0.9639 -0.2588 -0.0622
vn 0.9209 -0.1186 0.3713
vn 0.9728 0.0716 -0.2201
vn 0.9872 0.1181 -0.1073
vn 0.4365 -0.1542 0.8864
vn 0.2199 -0.2354 0.9467
vn 0.4761 0.0920 0.8746
vn 0.4551 0.0824 0.8866
vn -0.7760 -0.2724 0.5689
vn -0.9689 -0.1604 0.1885
vn -0.9717 -0.1763 0.1571
vn -0.7304 0.0655 0.6798
vn 0.9253 0.3656 0.1004
vn -0.3118 -0.3089 -0.8985
vn -0.4586 0.7589 -0.4623
vn -0.3920 0.7227 -0.5693
vn -0.0433 0.6306 -0.7749
vn 0.9374 0.2964 -0.1829
vn -0.1888 0.3039 -0.9338
vn 0.5521 0.7761 0.3049
vn -0.7444 0.0846 -0.6623
vn -0.6118 0.1232 -0.7813
vn -0.0271 -0.3569 -0.9338
vn 0.4568 -0.2118 -0.8640
vn 0.1660 -0.1958 -0.9665
vn 0.9696 0.1244 0.2109
vn 0.9156 0.0583 0.3977
vn 0.7511 0.1324 0.6468
vn 0.0567 0.1279 0.9902
vn -0.0504 0.0872 0.9949
vn -0.3475 0.0631 0.9356
vn -0.4952 0.1083 0.8620
vn -0.9164 0.1407 0.3747
vn -0.9538 0.1025 0.2826
vn -0.9195 0.1468 -0.3646
vn -0.9653 0.0917 -0.2445
vn -0.3688 -0.0849 -0.9256
vn -0.8547 -0.2347 -0.4631
vn -0.5806 -0.1895 -0.7919
vn -0.9680 -0.0907 -0.2338
vn -0.7562 -0.1400 -0.6392
vn 0.0392 0.1315 -0.9905
vn 0.6499 -0.0448 -0.7587
vn 0.6005 0.1128 -0.7916
vn 0.6519 0.0839 -0.7537
vn 0.8495 0.1224 -0.5132
vn 0.7012 0.6036 0.3794
vn 0.2589 0.7650 0.5897
vn 0.0431 0.1340 -0.9900
vn 0.0866 0.7806 0.6190
vn -0.4588 0.4435 0.7700
vn -0.1074 0.7229 0.6826
vn -0.3334 0.0571 -0.9410
vn -0.8112 0.4984 -0.3059
vn -0.6928 0.6954 0.1908
vn -0.7944 0.4916 0.3567
vn -0.0992 0.7365 0.6691
vn 0.8130 0.5176 -0.2667
s off
f 106/1/1 26/2/1 59/3/1
f 1/4/2 26/5/2 2/6/2
f 17/7/3 26/8/3 28/9/3
f 1/10/4 2/11/4 88/12/4
f 53/13/5 10/14/5 52/15/5
f 107/16/6 2/17/6 106/18/6
f 60/19/7 27/20/7 5/21/7
f 54/22/8 108/23/8 59/24/8
f 96/25/9 105/26/9 54/22/9
f 32/27/10 28/28/10 33/29/10
f 54/30/11 53/31/11 3/32/11
f 3/32/12 55/33/12 4/34/12
f 3/32/13 53/31/13 55/33/13
f 45/35/14 87/36/14 57/37/14
f 27/38/15 87/39/15 18/40/15
f 60/19/16 31/41/16 27/20/16
f 32/42/17 17/7/17 28/9/17
f 57/43/18 97/44/18 3/45/18
f 87/46/19 27/47/19 98/48/19
f 65/49/20 10/50/20 22/51/20
f 8/52/21 6/53/21 37/54/21
f 37/55/22 36/56/22 34/57/22
f 33/58/23 11/59/23 12/60/23
f 7/61/24 15/62/24 8/63/24
f 13/64/25 12/60/25 11/59/25
f 33/65/26 14/66/26 11/67/26
f 12/68/27 13/69/27 15/70/27
f 46/71/28 12/72/28 15/73/28
f 12/74/29 24/75/29 16/76/29
f 88/12/30 2/11/30 27/77/30
f 17/7/31 42/78/31 40/79/31
f 12/80/32 16/81/32 17/82/32
f 38/83/33 10/84/33 53/31/33
f 37/85/34 6/86/34 36/87/34
f 5/88/35 36/87/35 6/86/35
f 7/89/36 8/90/36 37/91/36
f 37/92/37 65/93/37 7/94/37
f 35/95/38 41/96/38 65/97/38
f 21/98/39 20/99/39 86/100/39
f 86/100/40 22/51/40 62/101/40
f 22/51/41 86/100/41 20/99/41
f 47/102/42 20/103/42 21/104/42
f 23/105/43 46/106/43 47/107/43
f 23/108/44 47/109/44 64/110/44
f 47/111/45 21/112/45 64/113/45
f 22/51/46 20/99/46 61/114/46
f 47/115/47 15/62/47 7/61/47
f 24/116/48 12/117/48 46/118/48
f 24/119/49 39/120/49 25/121/49
f 33/122/50 66/123/50 5/124/50
f 33/125/51 5/126/51 6/53/51
f 23/127/52 24/116/52 46/118/52
f 32/128/53 12/129/53 17/130/53
f 13/69/54 14/131/54 15/70/54
f 11/67/55 14/66/55 13/132/55
f 28/28/56 30/133/56 33/29/56
f 33/134/57 30/135/57 66/136/57
f 29/137/58 26/138/58 1/139/58
f 28/9/59 26/8/59 29/140/59
f 88/141/60 30/142/60 29/137/60
f 29/143/61 30/133/61 28/28/61
f 2/17/62 107/16/62 27/47/62
f 88/12/63 27/77/63 31/144/63
f 30/145/64 60/146/64 5/147/64
f 18/40/65 5/148/65 27/38/65
f 34/57/66 18/149/66 87/150/66
f 45/35/67 34/151/67 87/36/67
f 31/152/68 30/153/68 88/154/68
f 27/47/69 107/16/69 98/48/69
f 31/155/70 60/146/70 30/145/70
f 66/156/71 30/157/71 5/158/71
f 85/159/72 39/160/72 44/161/72
f 85/162/73 49/163/73 51/164/73
f 23/127/74 39/165/74 24/116/74
f 55/166/75 53/13/75 52/15/75
f 54/167/76 49/168/76 48/169/76
f 49/170/77 50/171/77 62/172/77
f 54/30/78 38/83/78 53/31/78
f 32/173/79 33/58/79 12/60/79
f 86/174/80 50/175/80 63/176/80
f 21/177/81 63/178/81 23/179/81
f 43/180/82 26/181/82 40/182/82
f 86/183/83 62/172/83 50/171/83
f 35/184/84 37/185/84 34/186/84
f 2/187/85 26/2/85 106/1/85
f 8/188/86 14/189/86 33/190/86
f 9/191/87 52/192/87 19/193/87
f 46/71/88 15/73/88 47/194/88
f 63/195/89 21/196/89 86/197/89
f 51/164/90 40/198/90 85/162/90
f 40/79/91 26/8/91 17/7/91
f 8/52/92 33/125/92 6/53/92
f 49/199/93 44/200/93 50/201/93
f 16/202/94 42/203/94 17/204/94
f 9/205/95 65/97/95 41/96/95
f 48/169/96 62/101/96 22/51/96
f 16/76/97 24/75/97 25/206/97
f 20/207/98 7/94/98 65/93/98
f 48/169/99 38/208/99 54/167/99
f 62/101/100 48/169/100 49/168/100
f 96/25/101 54/22/101 3/45/101
f 54/22/102 105/26/102 108/23/102
f 40/209/103 51/210/103 59/211/103
f 54/167/104 59/212/104 49/168/104
f 91/213/105 106/18/105 92/214/105
f 49/215/106 59/216/106 51/217/106
f 85/218/107 44/200/107 49/199/107
f 22/51/108 10/50/108 48/169/108
f 10/219/109 65/97/109 9/205/109
f 52/15/110 10/14/110 19/220/110
f 44/221/111 23/222/111 63/176/111
f 38/223/112 48/224/112 10/225/112
f 34/57/113 36/56/113 18/149/113
f 9/226/114 19/227/114 10/228/114
f 41/96/115 4/229/115 9/205/115
f 56/230/116 4/231/116 41/232/116
f 57/233/117 56/234/117 45/235/117
f 57/233/118 3/32/118 4/34/118
f 57/233/119 4/34/119 56/234/119
f 45/236/120 41/237/120 34/238/120
f 56/230/121 41/232/121 45/239/121
f 52/240/122 9/241/122 55/242/122
f 9/241/123 4/243/123 55/242/123
f 34/244/124 41/96/124 35/95/124
f 18/40/125 36/245/125 5/148/125
f 39/246/126 85/247/126 40/248/126
f 20/249/127 47/250/127 7/251/127
f 58/252/128 39/253/128 23/254/128
f 25/206/129 42/255/129 16/76/129
f 65/256/130 61/257/130 20/258/130
f 23/179/131 64/259/131 21/177/131
f 42/260/132 25/261/132 39/262/132
f 58/263/133 44/161/133 39/160/133
f 61/264/134 65/265/134 22/266/134
f 15/70/135 14/131/135 8/267/135
f 50/175/136 44/221/136 63/176/136
f 1/139/137 88/141/137 29/137/137
f 37/268/138 35/269/138 65/270/138
f 78/271/139 76/272/139 79/273/139
f 67/274/140 78/275/140 68/276/140
f 68/277/141 78/278/141 102/279/141
f 78/275/142 67/274/142 76/280/142
f 76/280/143 67/274/143 75/281/143
f 75/281/144 67/274/144 73/282/144
f 68/277/145 102/279/145 81/283/145
f 67/274/146 68/276/146 70/284/146
f 70/284/147 68/276/147 80/285/147
f 68/277/148 81/283/148 80/286/148
f 69/287/149 70/284/149 80/285/149
f 67/274/150 70/284/150 73/282/150
f 70/284/151 69/287/151 71/288/151
f 73/282/152 70/284/152 71/288/152
f 71/288/153 72/289/153 74/290/153
f 73/282/154 71/288/154 74/290/154
f 75/281/155 73/282/155 74/290/155
f 75/281/156 74/290/156 109/291/156
f 75/292/157 109/293/157 77/294/157
f 84/295/158 75/296/158 77/297/158
f 76/272/159 75/296/159 84/295/159
f 79/273/160 76/272/160 84/295/160
f 84/298/161 77/294/161 95/299/161
f 96/300/162 84/295/162 95/301/162
f 103/302/163 78/271/163 79/273/163
f 102/303/164 78/271/164 103/302/164
f 103/302/165 79/273/165 99/304/165
f 99/304/166 79/273/166 97/305/166
f 89/306/167 80/286/167 81/283/167
f 110/307/168 80/286/168 89/306/168
f 69/308/169 80/286/169 110/307/169
f 89/306/170 81/283/170 90/309/170
f 44/310/171 58/311/171 23/312/171
f 59/313/172 26/314/172 43/315/172
f 106/18/173 91/213/173 107/16/173
f 92/214/174 106/18/174 59/24/174
f 59/316/175 108/317/175 92/318/175
f 40/319/176 59/320/176 43/321/176
f 42/322/177 39/246/177 40/248/177
f 3/45/178 97/44/178 96/25/178
f 82/323/179 83/324/179 91/325/179
f 92/326/180 82/323/180 91/325/180
f 74/327/181 72/328/181 93/329/181
f 109/293/182 74/327/182 94/330/182
f 74/327/183 93/329/183 94/330/183
f 84/295/184 96/300/184 104/331/184
f 79/273/185 84/295/185 104/331/185
f 79/273/186 104/331/186 97/305/186
f 103/332/187 99/333/187 100/334/187
f 102/279/188 103/335/188 100/336/188
f 81/283/189 102/279/189 100/336/189
f 90/309/190 81/283/190 100/336/190
f 89/306/191 90/309/191 101/337/191
f 110/307/192 89/306/192 101/337/192
f 83/324/193 101/338/193 91/325/193
f 110/339/194 101/338/194 83/324/194
f 93/340/195 72/341/195 82/323/195
f 71/342/196 69/343/196 83/324/196
f 72/341/197 71/342/197 82/323/197
f 83/324/198 69/343/198 110/339/198
f 82/323/199 71/342/199 83/324/199
f 94/330/200 92/318/200 108/317/200
f 109/293/201 94/330/201 77/294/201
f 94/330/202 108/317/202 105/344/202
f 77/294/203 94/330/203 105/344/203
f 77/294/204 105/344/204 95/299/204
f 97/44/205 104/345/205 96/25/205
f 99/333/206 97/44/206 57/43/206
f 94/330/207 93/329/207 92/318/207
f 99/333/208 57/43/208 87/46/208
f 90/346/209 100/334/209 98/48/209
f 98/48/210 100/334/210 99/333/210
f 93/340/211 82/323/211 92/326/211
f 91/325/212 101/338/212 107/347/212
f 107/16/213 101/348/213 98/48/213
f 101/348/214 90/346/214 98/48/214
f 98/48/215 99/333/215 87/46/215
f 96/349/216 95/299/216 105/344/216
